<?xml version="1.0" standalone="no"?>
<!DOCTYPE svg PUBLIC "-//W3C//DTD SVG 20010904//EN"
 "http://www.w3.org/TR/2001/REC-SVG-20010904/DTD/svg10.dtd">
<svg version="1.0" xmlns="http://www.w3.org/2000/svg"
 width="225.000000pt" height="225.000000pt" viewBox="0 0 225.000000 225.000000"
 preserveAspectRatio="xMidYMid meet">
<metadata>
Created by potrace 1.10, written by Peter Selinger 2001-2011
</metadata>
<g transform="translate(0.000000,225.000000) scale(0.100000,-0.100000)"
fill="#000000" stroke="none">
<path d="M650 2239 c-20 -4 -47 -21 -62 -38 -24 -27 -28 -40 -28 -91 l0 -60
-125 0 c-105 0 -132 -3 -164 -19 -50 -26 -97 -81 -110 -128 -16 -57 -15 -825
1 -841 19 -19 56 -14 68 9 8 14 10 103 8 280 l-3 259 810 2 810 3 3 23 c8 54
45 52 -823 52 l-802 0 4 97 c4 107 14 132 66 163 27 17 51 20 145 20 l112 0 0
-49 c0 -63 32 -111 84 -129 92 -30 176 39 176 144 l0 34 370 0 370 0 0 -45 c0
-77 36 -124 107 -139 38 -9 89 11 122 48 18 19 26 41 29 81 l4 55 122 0 c102
0 126 -3 153 -20 66 -40 63 11 63 -948 l0 -869 -23 -21 c-29 -27 -77 -28 -108
-3 -21 17 -24 30 -29 112 l-5 94 -290 0 -290 0 -3 -29 c-2 -16 2 -32 10 -37 7
-5 122 -9 255 -9 l241 0 4 -62 c2 -35 7 -70 11 -78 6 -13 -96 -15 -895 -12
l-903 2 -21 23 c-15 15 -23 39 -26 74 l-5 53 501 0 c276 0 507 4 514 9 8 5 12
21 10 37 l-3 29 -238 3 -238 2 40 46 c56 64 84 141 84 234 0 201 -158 357
-358 354 -210 -3 -368 -175 -353 -384 6 -77 39 -158 87 -208 17 -18 31 -35 31
-38 0 -2 -32 -4 -70 -4 -65 0 -71 -2 -82 -25 -13 -28 -4 -45 14 -27 14 14 58
16 58 3 0 -5 -7 -14 -15 -21 -10 -8 -15 -30 -15 -63 l0 -50 -23 22 -24 22 7
-47 c10 -63 61 -114 124 -124 45 -7 46 -6 30 12 -17 17 8 18 848 18 476 0 880
3 898 6 20 4 38 17 49 34 l16 28 35 -29 c20 -17 46 -29 62 -29 32 0 34 -6 13
-30 -14 -16 -12 -16 31 -10 63 10 114 61 124 124 6 43 6 45 -10 31 -16 -14
-17 37 -22 837 -3 469 -4 855 -2 857 2 2 12 -3 22 -13 18 -16 19 -15 12 26
-12 79 -53 134 -122 163 -27 11 -73 15 -168 15 l-130 0 0 46 c0 93 -51 148
-136 146 -81 -1 -124 -50 -124 -139 l0 -53 -370 0 -370 0 0 45 c0 102 -74 164
-170 144z m68 -91 c17 -17 17 -249 0 -266 -18 -18 -56 -14 -68 7 -14 28 -13
244 2 259 7 7 21 12 33 12 12 0 26 -5 33 -12z m1000 0 c19 -19 16 -252 -3
-268 -21 -17 -61 -4 -69 22 -10 38 -7 218 4 239 12 21 50 25 68 7z m-913 -158
c-27 -30 -35 -25 -35 27 l0 48 27 -27 c26 -27 26 -28 8 -48z m-205 25 c0 -39
-5 -42 -32 -18 -17 15 -17 17 -2 35 25 27 34 22 34 -17z m1000 -7 c0 -40 0
-41 -20 -23 -25 22 -25 41 -2 54 9 6 18 11 20 11 1 0 2 -19 2 -42z m209 21
c11 -19 10 -24 -8 -43 l-21 -20 0 42 c0 47 8 53 29 21z m-1580 -368 c8 -14 6
-22 -8 -35 -26 -23 -31 -20 -31 19 0 39 22 48 39 16z m290 -822 c103 -51 157
-146 149 -260 -11 -146 -125 -252 -273 -252 -151 0 -268 119 -268 273 0 202
210 330 392 239z m-222 -546 c15 -10 4 -12 -61 -12 l-78 -1 16 25 c10 15 14
34 11 45 -6 20 -8 21 112 -57z m315 48 c-2 -16 1 -32 7 -35 27 -17 6 -26 -59
-26 -75 0 -88 10 -41 30 16 6 44 23 62 36 18 13 33 24 34 24 1 0 0 -13 -3 -29z"/>
<path d="M426 640 l-80 -80 -32 31 c-41 40 -77 37 -82 -5 -3 -23 6 -38 44 -77
31 -31 57 -49 72 -49 17 0 53 29 123 100 54 55 99 106 99 113 0 17 -32 47 -50
47 -8 0 -50 -36 -94 -80z"/>
<path d="M1996 1674 c-21 -20 -20 -30 5 -55 18 -18 23 -19 42 -6 26 17 33 43
17 62 -16 19 -45 19 -64 -1z"/>
<path d="M514 1351 c-62 -28 -89 -73 -89 -148 0 -102 56 -158 158 -158 74 0
116 25 148 88 40 78 4 182 -75 218 -52 23 -90 23 -142 0z m141 -114 c18 -42 2
-84 -40 -104 -28 -13 -36 -14 -61 -2 -42 20 -59 62 -43 101 26 64 118 67 144
5z"/>
<path d="M920 1348 c-91 -46 -117 -162 -55 -243 74 -97 226 -81 276 29 25 54
24 92 -3 146 -26 50 -89 90 -143 90 -17 0 -51 -10 -75 -22z m146 -115 c27 -64
-41 -131 -103 -101 -63 30 -65 109 -3 140 43 22 88 6 106 -39z"/>
<path d="M1330 1348 c-62 -32 -92 -85 -87 -156 6 -85 61 -141 145 -150 133
-12 222 119 160 238 -26 50 -89 90 -143 90 -17 0 -51 -10 -75 -22z m146 -115
c27 -64 -41 -131 -103 -101 -41 19 -58 61 -42 100 27 65 119 66 145 1z"/>
<path d="M1740 1348 c-145 -74 -103 -290 59 -306 132 -12 220 119 159 238 -26
50 -89 90 -143 90 -17 0 -51 -10 -75 -22z m146 -115 c27 -64 -41 -131 -103
-101 -41 19 -58 61 -42 100 27 65 119 66 145 1z"/>
<path d="M925 896 c-123 -57 -126 -232 -5 -293 56 -29 96 -29 150 0 51 27 90
90 90 146 0 43 -34 106 -72 134 -34 26 -121 33 -163 13z m127 -93 c11 -10 18
-30 18 -51 0 -86 -107 -115 -146 -41 -18 37 -10 73 24 100 30 23 73 20 104 -8z"/>
<path d="M1335 896 c-123 -55 -126 -232 -5 -293 56 -29 96 -29 150 0 90 47
116 163 55 243 -46 60 -130 81 -200 50z m127 -93 c26 -23 24 -87 -4 -113 -38
-36 -100 -25 -124 21 -18 37 -10 73 24 100 30 23 73 20 104 -8z"/>
<path d="M1745 896 c-123 -55 -126 -232 -5 -293 56 -29 96 -29 150 0 90 47
116 163 55 243 -46 60 -130 81 -200 50z m123 -88 c53 -45 20 -137 -50 -138
-40 0 -57 9 -74 41 -18 37 -10 73 24 100 28 22 71 20 100 -3z"/>
<path d="M1252 308 c-29 -29 -3 -72 40 -66 19 2 23 9 23 38 0 30 -4 35 -25 38
-14 2 -31 -3 -38 -10z"/>
</g>
</svg>
